{
  "accessors": [
    {
      "bufferView": 2,
      "componentType": 5126,
      "count": 312,
      "max": [
        2.008357524871826,
        2.437936782836914,
        1.140468716621399
      ],
      "min": [
        -2.0711252689361572,
        -1.3203773498535156,
        -0.9952017068862915
      ],
      "type": "VEC3"
    },
    {
      "bufferView": 2,
      "byteOffset": 3744,
      "componentType": 5126,
      "count": 312,
      "max": [
        0.9095944166183472,
        1.0,
        0.9209954738616943
      ],
      "min": [
        -0.9292842745780945,
        -0.9998142123222351,
        -0.9535119533538818
      ],
      "type": "VEC3"
    },
    {
      "bufferView": 1,
      "componentType": 5126,
      "count": 312,
      "max": [
        1.0,
        1.0
      ],
      "min": [
        0.0,
        0.0
      ],
      "type": "VEC2"
    },
    {
      "bufferView": 0,
      "componentType": 5125,
      "count": 486,
      "type": "SCALAR"
    },
    {
      "bufferView": 2,
      "byteOffset": 7488,
      "componentType": 5126,
      "count": 1068,
      "max": [
        1.0461618900299072,
        2.3913486003875732,
        1.051758050918579
      ],
      "min": [
        -0.9578101634979248,
        -0.04999999701976776,
        -1.0510497093200684
      ],
      "type": "VEC3"
    },
    {
      "bufferView": 2,
      "byteOffset": 20304,
      "componentType": 5126,
      "count": 1068,
      "max": [
        0.9988172054290771,
        0.9997517466545105,
        0.9459142684936523
      ],
      "min": [
        -0.9998463988304138,
        -0.8540117740631104,
        -0.9777578711509705
      ],
      "type": "VEC3"
    },
    {
      "bufferView": 1,
      "byteOffset": 2496,
      "componentType": 5126,
      "count": 1068,
      "max": [
        0.0,
        0.0
      ],
      "min": [
        0.0,
        0.0
      ],
      "type": "VEC2"
    },
    {
      "bufferView": 0,
      "byteOffset": 1944,
      "componentType": 5125,
      "count": 1602,
      "type": "SCALAR"
    },
    {
      "bufferView": 2,
      "byteOffset": 33120,
      "componentType": 5126,
      "count": 460,
      "max": [
        1.086452603340149,
        2.319882392883301,
        1.0951191186904907
      ],
      "min": [
        -0.9978716373443604,
        0.022046804428100586,
        -1.0943851470947266
      ],
      "type": "VEC3"
    },
    {
      "bufferView": 2,
      "byteOffset": 38640,
      "componentType": 5126,
      "count": 460,
      "max": [
        0.94696444272995,
        0.9069050550460815,
        0.9554638862609863
      ],
      "min": [
        -0.9990472197532654,
        -0.9986556768417358,
        -0.7159845232963562
      ],
      "type": "VEC3"
    },
    {
      "bufferView": 1,
      "byteOffset": 11040,
      "componentType": 5126,
      "count": 460,
      "max": [
        0.0,
        0.0
      ],
      "min": [
        0.0,
        0.0
      ],
      "type": "VEC2"
    },
    {
      "bufferView": 0,
      "byteOffset": 8352,
      "componentType": 5125,
      "count": 690,
      "type": "SCALAR"
    }
  ],
  "asset": {
    "extras": {
      "author": "TWOG (https://sketchfab.com/TWOG)",
      "license": "CC-BY-4.0 (http://creativecommons.org/licenses/by/4.0/)",
      "source": "https://sketchfab.com/3d-models/low-poly-snow-tree-b6555946289f4fc2be92d255daf20518",
      "title": "Low poly snow tree"
    },
    "generator": "Sketchfab-12.66.0",
    "version": "2.0"
  },
  "bufferViews": [
    {
      "buffer": 0,
      "byteLength": 11112,
      "name": "floatBufferViews",
      "target": 34963
    },
    {
      "buffer": 0,
      "byteLength": 14720,
      "byteOffset": 11112,
      "byteStride": 8,
      "name": "floatBufferViews",
      "target": 34962
    },
    {
      "buffer": 0,
      "byteLength": 44160,
      "byteOffset": 25832,
      "byteStride": 12,
      "name": "floatBufferViews",
      "target": 34962
    }
  ],
  "buffers": [
    {
      "byteLength": 69992,
      "uri": "scene.bin"
    }
  ],
  "materials": [
    {
      "doubleSided": true,
      "name": "Material.001",
      "pbrMetallicRoughness": {
        "baseColorFactor": [
          0.09503719215562158,
          0.03594477866919512,
          0.011911297769945895,
          1.0
        ],
        "metallicFactor": 0.0,
        "roughnessFactor": 0.5
      }
    },
    {
      "doubleSided": true,
      "name": "Material.003",
      "pbrMetallicRoughness": {
        "baseColorFactor": [
          0.09743368840774261,
          0.17901507171454986,
          0.011295810259670427,
          1.0
        ],
        "metallicFactor": 0.0,
        "roughnessFactor": 0.5
      }
    },
    {
      "doubleSided": true,
      "name": "Material.002",
      "pbrMetallicRoughness": {
        "baseColorFactor": [
          0.8,
          0.8,
          0.8,
          1.0
        ],
        "metallicFactor": 0.0,
        "roughnessFactor": 0.5
      }
    }
  ],
  "meshes": [
    {
      "name": "Object_0",
      "primitives": [
        {
          "attributes": {
            "NORMAL": 1,
            "POSITION": 0,
            "TEXCOORD_0": 2
          },
          "indices": 3,
          "material": 0,
          "mode": 4
        }
      ]
    },
    {
      "name": "Object_1",
      "primitives": [
        {
          "attributes": {
            "NORMAL": 5,
            "POSITION": 4,
            "TEXCOORD_0": 6
          },
          "indices": 7,
          "material": 1,
          "mode": 4
        }
      ]
    },
    {
      "name": "Object_2",
      "primitives": [
        {
          "attributes": {
            "NORMAL": 9,
            "POSITION": 8,
            "TEXCOORD_0": 10
          },
          "indices": 11,
          "material": 2,
          "mode": 4
        }
      ]
    }
  ],
  "nodes": [
    {
      "children": [
        1
      ],
      "matrix": [
        1.0,
        0.0,
        0.0,
        0.0,
        0.0,
        2.220446049250313e-16,
        -1.0,
        0.0,
        0.0,
        1.0,
        2.220446049250313e-16,
        0.0,
        0.0,
        0.0,
        0.0,
        1.0
      ],
      "name": "Sketchfab_model"
    },
    {
      "children": [
        2
      ],
      "name": "root"
    },
    {
      "children": [
        3,
        5
      ],
      "matrix": [
        1.0,
        0.0,
        0.0,
        0.0,
        0.0,
        2.220446049250313e-16,
        1.0,
        0.0,
        0.0,
        -1.0,
        2.220446049250313e-16,
        0.0,
        0.0,
        0.0,
        0.0,
        1.0
      ],
      "name": "GLTF_SceneRootNode"
    },
    {
      "children": [
        4
      ],
      "matrix": [
        0.2313174605369568,
        0.0,
        0.0,
        0.0,
        0.0,
        1.0,
        0.0,
        0.0,
        0.0,
        0.0,
        0.2313174605369568,
        0.0,
        0.0,
        1.010614275932312,
        0.0,
        1.0
      ],
      "name": "Trunk_0"
    },
    {
      "mesh": 0,
      "name": "Object_4"
    },
    {
      "children": [
        6,
        7
      ],
      "matrix": [
        0.9602478415554094,
        0.27914885417672286,
        0.0,
        0.0,
        -0.27914885417672286,
        0.9602478415554094,
        0.0,
        0.0,
        0.0,
        0.0,
        1.0,
        0.0,
        0.0,
        1.0773831605911255,
        0.0,
        1.0
      ],
      "name": "Leaves_1"
    },
    {
      "mesh": 1,
      "name": "Object_6"
    },
    {
      "mesh": 2,
      "name": "Object_7"
    }
  ],
  "scene": 0,
  "scenes": [
    {
      "name": "Sketchfab_Scene",
      "nodes": [
        0
      ]
    }
  ]
}
